{"title":"The Disaster Artist 2017 DVDScr AAC x264 - EiE","magnet":"magnet:?xt=urn:btih:5c017c1fc9b17d7bc955fd6f842ee262cde7b5ac&dn=The+Disaster+Artist+2017+DVDScr+AAC+x264+-+EiE&tr=udp%3A%2F%2Ftracker.leechers-paradise.org%3A6969&tr=udp%3A%2F%2Fzer0day.ch%3A1337&tr=udp%3A%2F%2Fopen.demonii.com%3A1337&tr=udp%3A%2F%2Ftracker.coppersurfer.tk%3A6969&tr=udp%3A%2F%2Fexodus.desync.com%3A6969","uploader":"samcode4u","categoryP":"video","categoryS":"movies","size":"734184524","seeders":"1","leechers":"1","description":"The Disaster Artist 2017 DVDScr AAC x264 - EiE\r\n <a href=\"\nhttps://www.imdb.com/title/tt3521126/\" rel=\"nofollow\" target=\"_NEW\">\nhttps://www.imdb.com/title/tt3521126/</a>\r\n\r\n\r\nScreenshots:\r\n <a href=\"\nhttps://lensdump.com/i/lr0Kz\" rel=\"nofollow\" target=\"_NEW\">\nhttps://lensdump.com/i/lr0Kz</a>\r\n <a href=\"\nhttps://lensdump.com/i/lrjt5\" rel=\"nofollow\" target=\"_NEW\">\nhttps://lensdump.com/i/lrjt5</a>\r\n <a href=\"\nhttps://lensdump.com/i/lrIfT\" rel=\"nofollow\" target=\"_NEW\">\nhttps://lensdump.com/i/lrIfT</a>\r\n <a href=\"\nhttps://lensdump.com/i/lrgjb\" rel=\"nofollow\" target=\"_NEW\">\nhttps://lensdump.com/i/lrgjb</a>\r\n\r\n\r\nVideo\r\nID                                       : 1\r\nFormat                                   : AVC\r\nFormat/Info                              : Advanced Video Codec\r\nFormat settings                          : CABAC / 4 Ref Frames\r\nFormat settings, CABAC                   : Yes\r\nFormat settings, RefFrames               : 4 frames\r\nCodec ID                                 : avc1\r\nCodec ID/Info                            : Advanced Video Coding\r\nDuration                                 : 1 h 43 min\r\nBit rate                                 : 859 kb/s\r\nMaximum bit rate                         : 4 828 kb/s\r\nWidth                                    : 720 pixels\r\nHeight                                   : 304 pixels\r\nDisplay aspect ratio                     : 2.35:1\r\nFrame rate mode                          : Constant\r\nFrame rate                               : 30.000 FPS\r\nColor space                              : YUV\r\nChroma subsampling                       : 4:2:0\r\nBit depth                                : 8 bits\r\nScan type                                : Progressive\r\nBits/(Pixel*Frame)                       : 0.131\r\nStream size                              : 636 MiB (91%)\r\n\r\nAudio\r\nID                                       : 2\r\nFormat                                   : AAC\r\nFormat/Info                              : Advanced Audio Codec\r\nFormat profile                           : LC\r\nCodec ID                                 : mp4a-40-2\r\nDuration                                 : 1 h 43 min\r\nBit rate mode                            : Variable\r\nBit rate                                 : 82.8 kb/s\r\nMaximum bit rate                         : 127 kb/s\r\nChannel(s)                               : 2 channels\r\nChannel positions                        : Front: L R\r\nSampling rate                            : 48.0 kHz\r\nFrame rate                               : 46.875 FPS (1024 SPF)\r\nCompression mode                         : Lossy\r\nStream size                              : 61.3 MiB (9%)\r\nLanguage                                 : English","last_updated":"2017-12-31T12:00:42.784Z","parsed":{"xt":"urn:btih:5c017c1fc9b17d7bc955fd6f842ee262cde7b5ac","dn":"The Disaster Artist 2017 DVDScr AAC x264 - EiE","tr":["udp://exodus.desync.com:6969","udp://open.demonii.com:1337","udp://tracker.coppersurfer.tk:6969","udp://tracker.leechers-paradise.org:6969","udp://zer0day.ch:1337"],"infoHash":"5c017c1fc9b17d7bc955fd6f842ee262cde7b5ac","infoHashBuffer":{"type":"Buffer","data":[92,1,124,31,201,177,125,123,201,85,253,111,132,46,226,98,205,231,181,172]},"name":"The Disaster Artist 2017 DVDScr AAC x264 - EiE","announce":["udp://exodus.desync.com:6969","udp://open.demonii.com:1337","udp://tracker.coppersurfer.tk:6969","udp://tracker.leechers-paradise.org:6969","udp://zer0day.ch:1337"],"urlList":[]}}